<svg
   width="210mm"
   height="297mm"
   viewBox="0 0 210 297"
   version="1.1"
   id="svg1"
   inkscape:version="1.3.2 (091e20e, 2023-11-25, custom)"
   sodipodi:docname="TensorBuildLogo.svg"
   xmlns:inkscape="http://www.inkscape.org/namespaces/inkscape"
   xmlns:sodipodi="http://sodipodi.sourceforge.net/DTD/sodipodi-0.dtd"
   xmlns="http://www.w3.org/2000/svg"
   xmlns:svg="http://www.w3.org/2000/svg">
  <sodipodi:namedview
     id="namedview1"
     pagecolor="#ffffff"
     bordercolor="#000000"
     borderopacity="0.25"
     inkscape:showpageshadow="2"
     inkscape:pageopacity="0.0"
     inkscape:pagecheckerboard="0"
     inkscape:deskcolor="#d1d1d1"
     inkscape:document-units="mm"
     showguides="true"
     inkscape:zoom="0.69219276"
     inkscape:cx="374.89557"
     inkscape:cy="578.59605"
     inkscape:window-width="1920"
     inkscape:window-height="991"
     inkscape:window-x="-9"
     inkscape:window-y="-9"
     inkscape:window-maximized="1"
     inkscape:current-layer="layer1" />
  <defs
     id="defs1">
    <inkscape:path-effect
       effect="perspective-envelope"
       up_left_point="72.340762,184.39992"
       up_right_point="99.377981,189.56561"
       down_left_point="72.340762,226.42085"
       down_right_point="99.377981,221.01626"
       id="path-effect17"
       is_visible="true"
       lpeversion="1"
       deform_type="perspective"
       horizontal_mirror="true"
       vertical_mirror="false"
       overflow_perspective="false" />
    <inkscape:path-effect
       effect="fillet_chamfer"
       id="path-effect16"
       is_visible="true"
       lpeversion="1"
       nodesatellites_param="F,0,0,1,0,0,0,1 @ F,0,0,1,0,0,0,1 @ F,0,0,1,0,0,0,1 @ F,0,0,1,0,0,0,1 @ F,0,0,1,0,0,0,1 @ F,0,0,1,0,0,0,1 @ F,0,0,1,0,0,0,1 @ F,0,0,1,0,0,0,1 @ F,0,0,1,0,0,0,1 @ F,0,0,1,0,0,0,1 @ F,0,0,1,0,0,0,1 @ F,0,0,1,0,0,0,1 @ F,0,0,1,0,0,0,1 @ F,0,0,1,0,0,0,1 @ F,0,0,1,0,0,0,1 @ F,0,0,1,0,0,0,1 @ F,0,0,1,0,0,0,1 | F,0,0,1,0,0,0,1 @ F,0,0,1,0,0,0,1 @ F,0,0,1,0,2.9539034,0,1 @ F,0,0,1,0,0,0,1 @ F,0,0,1,0,0,0,1 @ F,0,0,1,0,3.3998794,0,1 @ F,0,0,1,0,0,0,1 @ F,0,0,1,0,0,0,1 @ F,0,0,1,0,0,0,1 @ F,0,0,1,0,0,0,1 @ F,0,0,1,0,0,0,1 @ F,0,0,1,0,0,0,1 | F,0,0,1,0,0,0,1 @ F,0,0,1,0,0,0,1 @ F,0,0,1,0,0,0,1 @ F,0,0,1,0,0,0,1 @ F,0,0,1,0,0,0,1 @ F,0,0,1,0,2.1700186,0,1 @ F,0,0,1,0,0,0,1 @ F,0,0,1,0,0,0,1 @ F,0,0,1,0,0,0,1 @ F,0,0,1,0,0,0,1 @ F,0,0,1,0,0,0,1 @ F,0,0,1,0,0,0,1"
       radius="0"
       unit="px"
       method="auto"
       mode="F"
       chamfer_steps="1"
       flexible="false"
       use_knot_distance="true"
       apply_no_radius="true"
       apply_with_radius="true"
       only_selected="false"
       hide_knots="false" />
    <inkscape:path-effect
       effect="perspective-envelope"
       up_left_point="100.34141,127.83156"
       up_right_point="123.68109,131.65533"
       down_left_point="100.34141,165.13808"
       down_right_point="123.68109,161.31431"
       id="path-effect15"
       is_visible="true"
       lpeversion="1"
       deform_type="perspective"
       horizontal_mirror="true"
       vertical_mirror="false"
       overflow_perspective="false" />
    <inkscape:path-effect
       effect="perspective-envelope"
       up_left_point="100.33773,124.80139"
       up_right_point="126.35632,129.96162"
       down_left_point="100.33773,164.22383"
       down_right_point="126.35632,160.78368"
       id="path-effect12"
       is_visible="true"
       lpeversion="1"
       deform_type="perspective"
       horizontal_mirror="false"
       vertical_mirror="false"
       overflow_perspective="false" />
    <inkscape:path-effect
       effect="fillet_chamfer"
       id="path-effect8"
       is_visible="true"
       lpeversion="1"
       nodesatellites_param="F,0,0,1,0,0,0,1 @ F,0,0,1,0,0,0,1 @ F,0,0,1,0,3.103893,0,1 @ F,0,1,1,0,3.103893,0,1 @ F,0,1,1,0,3.103893,0,1 @ F,0,1,1,0,3.103893,0,1 @ F,0,0,1,0,0,0,1 @ F,0,0,1,0,0,0,1"
       radius="0"
       unit="px"
       method="auto"
       mode="F"
       chamfer_steps="1"
       flexible="false"
       use_knot_distance="true"
       apply_no_radius="true"
       apply_with_radius="true"
       only_selected="false"
       hide_knots="false" />
    <inkscape:path-effect
       effect="perspective-envelope"
       up_left_point="101.85234,130.69111"
       up_right_point="131.30105,124.07711"
       down_left_point="101.75678,158.88162"
       down_right_point="131.57133,163.75517"
       id="path-effect7"
       is_visible="true"
       lpeversion="1"
       deform_type="perspective"
       horizontal_mirror="false"
       vertical_mirror="false"
       overflow_perspective="false" />
    <inkscape:path-effect
       effect="perspective-envelope"
       up_left_point="97.031967,139.19629"
       up_right_point="127.89412,140.84358"
       down_left_point="97.031967,147.84652"
       down_right_point="127.82655,145.73882"
       id="path-effect6"
       is_visible="true"
       lpeversion="1"
       deform_type="perspective"
       horizontal_mirror="false"
       vertical_mirror="false"
       overflow_perspective="false" />
    <inkscape:perspective
       sodipodi:type="inkscape:persp3d"
       inkscape:vp_x="0 : 148.5 : 1"
       inkscape:vp_y="0 : 1000 : 0"
       inkscape:vp_z="210 : 148.5 : 1"
       inkscape:persp3d-origin="105 : 99 : 1"
       id="perspective1" />
  </defs>
  <g
     inkscape:label="Layer 1"
     inkscape:groupmode="layer"
     id="layer1">
    <g
       sodipodi:type="inkscape:box3d"
       id="g1"
       style="fill:#000000"
       inkscape:perspectiveID="#perspective1"
       inkscape:corner0="0.83131317 : 0.016722161 : 0 : 1"
       inkscape:corner7="0.14457073 : 0.088746269 : 0.55243672 : 1">
      <path
         sodipodi:type="inkscape:box3dside"
         id="path6"
         style="fill:#e9e9ff;fill-rule:evenodd;stroke:none;stroke-linejoin:round"
         inkscape:box3dsidetype="11"
         d="m 92.715984,162.25054 37.520166,5.56455 v -42.44184 l -37.520166,6.66267 z"
         points="130.23615,167.81509 130.23615,125.37325 92.715984,132.03592 92.715984,162.25054 " />
      <path
         sodipodi:type="inkscape:box3dside"
         id="path1"
         style="fill:#353564;fill-rule:evenodd;stroke:none;stroke-linejoin:round"
         inkscape:box3dsidetype="6"
         d="m 57.335907,166.39855 v -39.32922 l 35.380077,4.96659 v 30.21462 z"
         points="57.335907,127.06933 92.715984,132.03592 92.715984,162.25054 57.335907,166.39855 " />
      <path
         sodipodi:type="inkscape:box3dside"
         id="path5"
         style="fill:#afafde;fill-rule:evenodd;stroke:none;stroke-linejoin:round"
         inkscape:box3dsidetype="13"
         d="m 57.335907,127.06933 34.401545,-12.8584 38.498698,11.16232 -37.520166,6.66267 z"
         points="91.737452,114.21093 130.23615,125.37325 92.715984,132.03592 57.335907,127.06933 " />
      <path
         sodipodi:type="inkscape:box3dside"
         id="path2"
         style="fill:#4d4d9f;fill-rule:evenodd;stroke:none;stroke-linejoin:round"
         inkscape:box3dsidetype="5"
         d="m 57.335907,166.39855 34.401545,10.73912 38.498698,-9.32258 -37.520166,-5.56455 z"
         points="91.737452,177.13767 130.23615,167.81509 92.715984,162.25054 57.335907,166.39855 " />
      <path
         sodipodi:type="inkscape:box3dside"
         id="path4"
         style="fill:#d7d7ff;fill-rule:evenodd;stroke:none;stroke-linejoin:round"
         inkscape:box3dsidetype="14"
         d="m 91.737452,177.13767 v -62.92674 l 38.498698,11.16232 v 42.44184 z"
         points="91.737452,114.21093 130.23615,125.37325 130.23615,167.81509 91.737452,177.13767 " />
      <path
         sodipodi:type="inkscape:box3dside"
         id="path3"
         style="fill:#8686bf;fill-rule:evenodd;stroke:none;stroke-linejoin:round"
         inkscape:box3dsidetype="3"
         d="m 57.335907,166.39855 34.401545,10.73912 v -62.92674 l -34.401545,12.8584 z"
         points="91.737452,177.13767 91.737452,114.21093 57.335907,127.06933 57.335907,166.39855 " />
    </g>
    <path
       id="rect6"
       style="opacity:0.8;fill:#ffffff;stroke-width:0.186395"
       d="m 101.85234,130.69111 -0.0166,4.91115 6.6439,-1.04351 a 2.6543387,2.6543387 40.537994 0 1 3.06619,2.62229 l -7.5e-4,20.19668 a 3.6523201,3.6523201 49.642848 0 0 3.06313,3.60461 2.3243797,2.3243797 129.53478 0 0 2.25661,-2.73411 l -0.0391,-21.89557 a 3.6228968,3.6228968 130.48578 0 1 3.06076,-3.58549 l 11.46155,-1.80019 -0.0469,-6.88986 z"
       transform="translate(-42.814223,1.9579699)"
       inkscape:original-d="m 96.21431,126.10424 v 6.612 h 14.42961 v 31.03893 h 6.4978 v -31.03893 h 14.42961 v -6.612 z"
       inkscape:path-effect="#path-effect7;#path-effect8" />
    <path
       d="m 99.377981,211.46191 c 0,1.5631 -0.25306,2.97137 -0.763987,4.23673 -0.517437,1.28148 -1.22403,2.39155 -2.129493,3.3332 -1.097259,1.15481 -2.339469,2.07708 -3.738252,2.76017 -1.430662,0.70286 -3.324396,1.28989 -5.738637,1.76182 l -14.66685,2.86702 v -42.02093 l 12.531919,2.4497 c 2.651763,0.51835 4.541587,0.9827 5.754135,1.40578 1.180443,0.41187 2.281001,1.0015 3.306478,1.76329 1.108438,0.83712 1.894987,1.78813 2.376785,2.85983 0.476295,1.04532 0.71241,2.24473 0.71241,3.60714 0,1.53632 -0.345075,2.82265 -1.043928,3.87207 -0.7107,1.05241 -1.677207,1.89742 -2.916822,2.53516 v 0.18222 c 2.059914,0.51545 3.615641,1.51672 4.717341,2.99204 1.072879,1.42293 1.598865,3.2118 1.598865,5.39435 z m -6.484219,-14.82734 c 0,-0.82152 -0.126454,-1.52885 -0.380471,-2.12458 -0.429865,-1.00845 -2.325444,-2.34184 -3.810273,-2.70105 -1.044502,-0.26934 -2.372119,-0.52667 -4.006552,-0.77366 l -2.543622,-0.38438 c -2.062425,-0.31166 -3.799388,1.06812 -3.799388,3.09395 v 7.78812 l 6.844298,0.26153 c 1.520948,0.0581 2.696676,0.0304 3.55147,-0.0802 0.839084,-0.12387 1.603411,-0.40468 2.296379,-0.83902 0.682316,-0.42767 1.155182,-0.99152 1.425182,-1.6932 0.282414,-0.71128 0.422937,-1.55979 0.422937,-2.54896 z m 2.592599,15.2972 c 0,-1.32857 -0.178634,-2.37531 -0.538181,-3.14511 -0.362619,-0.77668 -1.028651,-1.43299 -2.012376,-1.97307 -0.677892,-0.37267 -1.518557,-0.61033 -2.531133,-0.71028 -1.020817,-0.11871 -2.298849,-0.1748 -3.855142,-0.16601 l -5.737661,0.0324 c -1.342756,0.008 -2.458302,1.06207 -2.458302,2.35508 v 12.41867 l 6.993645,-1.0568 c 2.105957,-0.31823 3.762512,-0.672 5.012905,-1.06356 1.216401,-0.39586 2.188586,-0.9189 2.931586,-1.56874 0.771471,-0.68963 1.327609,-1.42437 1.676528,-2.20856 0.346125,-0.77797 0.518131,-1.74778 0.518131,-2.91418 z"
       id="text15"
       style="font-size:3.175px;opacity:0.9;fill:#ffffff;stroke-width:4.21446"
       aria-label="B"
       inkscape:path-effect="#path-effect16;#path-effect17"
       inkscape:original-d="m 100.07223,212.48535 q 0,2.74117 -1.037117,4.84009 -1.037117,2.09892 -2.790435,3.45716 -2.074312,1.62982 -4.568425,2.32129 -2.469407,0.6913 -6.29699,0.6913 H 72.340762 v -36.76961 h 10.890105 q 4.025145,0 6.025374,0.29628 2.000212,0.29627 3.827582,1.23447 2.024918,1.06244 2.938603,2.74101 0.913669,1.65451 0.913669,3.97579 0,2.61756 -1.333549,4.46959 -1.33355,1.82734 -3.555951,2.93868 v 0.19752 q 3.728809,0.76617 5.877205,3.28434 2.14838,2.49411 2.14838,6.32161 z M 91.849079,195.9157 q 0,-1.33323 -0.444569,-2.24722 -0.44457,-0.91431 -1.432307,-1.48137 -1.160564,-0.66741 -2.815124,-0.81555 -1.654512,-0.17362 -4.09923,-0.17362 h -5.82781 v 10.61854 h 6.321695 q 2.296549,0 3.654724,-0.223 1.358239,-0.2469 2.518803,-0.98758 1.160563,-0.74069 1.629822,-1.90141 0.493949,-1.18509 0.493949,-2.79039 z m 3.136166,16.76716 q 0,-2.22237 -0.666774,-3.53122 -0.666775,-1.30934 -2.420029,-2.22237 -1.185253,-0.61804 -2.889208,-0.79007 -1.679201,-0.19751 -4.09923,-0.19751 h -7.67987 v 13.68066 h 6.469864 q 3.210235,0 5.259842,-0.32176 2.049623,-0.34565 3.358403,-1.23447 1.382928,-0.96368 2.024917,-2.19784 0.642085,-1.23447 0.642085,-3.18557 z"
       transform="translate(25.521654,-60.128669)" />
  </g>
</svg>
